<?xml version="1.0" encoding="UTF-8"?>
<svg id="Layer_1" data-name="Layer 1" xmlns="http://www.w3.org/2000/svg" viewBox="0 0 1046.26 207.47">
  <defs>
    <style>
      .cls-1 {
        letter-spacing: 0em;
      }

      .cls-2 {
        letter-spacing: .04em;
      }

      .cls-3 {
        fill: #e2252a;
        font-family: MyriadPro-Regular, 'Myriad Pro';
        font-size: 12px;
      }

      .cls-4 {
        fill: #e32329;
        stroke-width: 0px;
      }

      .cls-5 {
        letter-spacing: 0em;
      }

      .cls-6 {
        fill: #e42027;
        font-family: Ansage-Bold, Ansage;
        font-size: 160px;
        font-weight: 700;
      }

      .cls-7 {
        letter-spacing: -.06em;
      }

      .cls-8 {
        letter-spacing: 0em;
      }
    </style>
  </defs>
  <text class="cls-6" transform="translate(0 166.83) scale(1.04 1)"><tspan class="cls-7" x="0" y="0">P</tspan><tspan class="cls-1" x="99.04" y="0">ARA</tspan><tspan class="cls-5" x="440.64" y="0">L</tspan><tspan x="529.76" y="0">LAX</tspan></text>
  <path class="cls-4" d="M975.21,155.21c-4.35.23-8.56.63-12.76.63s-8.4-.4-12.72-.63c-.18.37-.4.83-.61,1.3-.95,2.11-2.17,4.03-3.77,5.7-5.53,5.8-14.23,6.16-20.24.85-2.99-2.64-5.04-5.94-6.51-9.61-.79-1.98-1.48-4-2.15-6.02-.77-2.31-1.99-4.29-3.7-6.05-5.72-5.88-9.31-12.97-11.59-20.78-.3-1.04-.57-2.09-.88-3.22.72-.42,1.39-.81,2.05-1.2,4.68-2.72,8.82-6.08,12.14-10.39.25-.33.52-.66.71-1.03.54-1.04.28-2.14-.6-2.79-.82-.6-2.09-.5-2.86.26-.29.29-.5.66-.77.98-5.33,6.29-11.88,10.67-19.94,12.66-1.98.49-3.98.64-6.03.21-3.84-.83-6.24-3.65-6.35-7.59-.08-2.64.55-5.16,1.42-7.63,2.11-6.01,5.39-11.37,9.37-16.29,2.12-2.62,4.42-5.12,6.75-7.57,1.41-1.49,2.3-3.07,2.55-5.17.75-6.15,1.93-12.22,3.86-18.13,6.93-21.15,24.82-37.09,46.46-41.51,18.68-3.81,36.01-.27,51.44,11.15,12.18,9.03,19.81,21.15,23.42,35.84,1.77,7.2,2.77,14.51,3.12,21.9.24,4.99.41,9.99.27,14.98-.24,8.97-1.24,17.86-3.97,26.46-2.36,7.45-6.12,14.11-11.74,19.63-1.45,1.43-2.33,3.16-2.99,5.05-.81,2.36-1.61,4.73-2.58,7.02-1.39,3.29-3.27,6.27-5.96,8.69-2.7,2.43-5.86,3.82-9.46,3.92-4.02.11-7.54-1.29-10.47-4.1-1.82-1.76-3.2-3.83-4.26-6.11-.22-.47-.44-.94-.66-1.41h.02ZM935.31,64.22c3.46,0,6.3-2.83,6.35-6.34.05-3.55-2.82-6.53-6.31-6.55-3.55-.02-6.45,2.87-6.44,6.41,0,3.56,2.89,6.47,6.4,6.48ZM989.7,51.33c-3.55-.02-6.4,2.85-6.4,6.46,0,3.53,2.8,6.4,6.28,6.42,3.46.02,6.36-2.83,6.43-6.3.06-3.56-2.81-6.56-6.31-6.58h0ZM962.58,75.09c1.28-.21,2.58-.31,3.83-.64,2.71-.74,5.05-2.17,6.92-4.29.9-1.01.82-2.24-.04-3.08-.83-.81-1.9-.84-2.97-.05-.41.31-.78.68-1.18,1.01-3.95,3.24-9.6,3.19-13.47-.11-.32-.27-.61-.57-.94-.81-1.16-.86-2.4-.79-3.2.17-.73.88-.63,2.13.33,3.08,2.96,2.94,6.49,4.6,10.73,4.74h0Z"/>
  <path class="cls-4" d="M988.58,11.13c.03-.05.07-.22.17-.32,4.92-4.69,10.43-8.4,17.09-10.17,2.75-.73,5.58-.85,8.35-.31,6.26,1.22,10.07,5.27,12.18,11.09,1.52,4.18,1.83,8.53,1.54,12.92-.4,6.01-1.76,11.81-4.2,17.33-.17.38-.34.76-.53,1.13-.04.08-.17.11-.28.19-2.07-3.34-4.14-6.67-6.23-10.04.45-1.81,1.01-3.7,1.4-5.63.66-3.29.86-6.62.21-9.92-.29-1.46-.79-2.92-1.46-4.24-1.09-2.14-2.94-3.29-5.39-3.41-1.8-.09-3.51.24-5.17.9-2.69,1.08-5.01,2.74-7.22,4.57-.36.29-.71.59-1.02.85-3.19-1.67-6.31-3.29-9.44-4.92h0Z"/>
  <path class="cls-4" d="M902.02,43.21c-1.62-3.2-2.67-6.23-3.47-9.36-1.27-5.03-1.91-10.11-1.48-15.3.27-3.29.97-6.49,2.49-9.43,3.27-6.31,8.45-9.36,15.58-9.06,3.01.13,5.84.94,8.56,2.16,4.46,2,8.41,4.75,11.99,8.06.19.18.38.36.55.55.07.07.09.18.17.33-3.11,1.6-6.21,3.2-9.46,4.88-.23-.19-.59-.46-.94-.75-2.83-2.33-5.77-4.47-9.44-5.26-1.05-.23-2.17-.3-3.24-.26-2.33.08-4.01,1.28-5.16,3.25-1.15,1.98-1.63,4.14-1.76,6.4-.25,4.26.33,8.41,1.66,12.45.27.84.16,1.4-.32,2.14-1.64,2.47-3.17,5-4.74,7.52-.29.47-.56.95-.99,1.7h0Z"/>
  <path class="cls-4" d="M897.98,126c1.54,3.13,2.86,6.01,4.35,8.81,1.96,3.7,4.57,6.95,7.48,9.96,1.04,1.07,1.81,2.26,2.27,3.68.71,2.17,1.45,4.32,2.2,6.56-.32.13-.54.27-.77.3-6.17.59-12.15-.08-17.81-2.75-3.71-1.76-6.81-4.21-8.83-7.86-1.85-3.34-2.36-6.86-1.14-10.53,1.47-4.43,4.7-6.85,9.14-7.78,1.05-.22,2.15-.26,3.11-.37Z"/>
  <path class="cls-4" d="M1031.83,80.07c.45.48.92.94,1.35,1.44,3.45,4.12,6.55,8.48,9.07,13.24,2.01,3.79,3.62,7.74,3.97,12.06.1,1.27.03,2.62-.27,3.86-.85,3.4-3.72,5.47-7.55,5.62-2.86.12-5.54-.64-8.38-1.7,1.85-11.4,2.41-22.85,1.51-34.35.1-.06.2-.12.3-.18h0Z"/>
  <text class="cls-3" transform="translate(860.71 51.32)"><tspan class="cls-2" x="0" y="0">T</tspan><tspan class="cls-8" x="6.44" y="0">V</tspan></text>
</svg>