<?xml version="1.0" encoding="utf-8"?>
<!-- Generator: Adobe Illustrator 28.3.0, SVG Export Plug-In . SVG Version: 6.00 Build 0)  -->
<svg version="1.1" id="Layer_1" xmlns="http://www.w3.org/2000/svg" xmlns:xlink="http://www.w3.org/1999/xlink" x="0px" y="0px"
	 viewBox="0 0 512 512" style="enable-background:new 0 0 512 512;" xml:space="preserve">
<style type="text/css">
	.st0{fill:#E32329;}
</style>
<path class="st0" d="M284.9,413.6c-9.7,0.5-19,1.4-28.3,1.4c-9.3,0-18.7-0.9-28.3-1.4c-0.4,0.8-0.9,1.8-1.4,2.9
	c-2.1,4.7-4.8,9-8.4,12.7c-12.3,12.9-31.6,13.7-45,1.9c-6.6-5.9-11.2-13.2-14.5-21.3c-1.8-4.4-3.3-8.9-4.8-13.4
	c-1.7-5.1-4.4-9.5-8.2-13.5c-12.7-13.1-20.7-28.8-25.7-46.2c-0.7-2.3-1.3-4.6-2-7.2c1.6-0.9,3.1-1.8,4.6-2.7
	c10.4-6.1,19.6-13.5,27-23.1c0.6-0.7,1.2-1.5,1.6-2.3c1.2-2.3,0.6-4.8-1.3-6.2c-1.8-1.3-4.7-1.1-6.3,0.6c-0.7,0.6-1.1,1.5-1.7,2.2
	c-11.8,14-26.4,23.7-44.3,28.1c-4.4,1.1-8.9,1.4-13.4,0.5c-8.6-1.8-13.9-8-14.2-16.8c-0.2-5.9,1.2-11.5,3.2-16.9
	c4.7-13.4,12-25.3,20.8-36.2c4.7-5.8,9.8-11.4,15-16.8c3.1-3.3,5.1-6.8,5.7-11.5c1.7-13.7,4.3-27.1,8.6-40.3
	c15.4-47,55.1-82.4,103.2-92.2c41.5-8.5,80-0.6,114.3,24.8c27.1,20.1,44,47,52,79.6c3.9,16,6.2,32.2,6.9,48.6
	c0.5,11.1,0.9,22.2,0.6,33.3c-0.5,19.9-2.8,39.7-8.8,58.8c-5.2,16.5-13.6,31.4-26.1,43.6c-3.2,3.2-5.2,7-6.6,11.2
	c-1.8,5.2-3.6,10.5-5.7,15.6c-3.1,7.3-7.3,13.9-13.2,19.3c-6,5.4-13,8.5-21,8.7c-8.9,0.2-16.8-2.9-23.2-9.1
	c-4.1-3.9-7.1-8.5-9.5-13.6C285.8,415.7,285.3,414.7,284.9,413.6L284.9,413.6z M196.2,211.5c7.7,0,14-6.3,14.1-14.1
	c0.1-7.9-6.3-14.5-14-14.6c-7.9,0-14.3,6.4-14.3,14.2C182,205,188.4,211.4,196.2,211.5z M317.1,182.8c-7.9-0.1-14.2,6.3-14.2,14.4
	c0,7.8,6.2,14.2,14,14.3c7.7,0.1,14.1-6.3,14.3-14C331.2,189.6,324.8,182.9,317.1,182.8L317.1,182.8z M256.8,235.6
	c2.8-0.5,5.7-0.7,8.5-1.4c6-1.6,11.2-4.8,15.4-9.5c2-2.2,1.8-5-0.1-6.8c-1.8-1.8-4.2-1.9-6.6-0.1c-0.9,0.7-1.7,1.5-2.6,2.2
	c-8.8,7.2-21.3,7.1-29.9-0.2c-0.7-0.6-1.4-1.3-2.1-1.8c-2.6-1.9-5.3-1.8-7.1,0.4c-1.6,1.9-1.4,4.7,0.7,6.9
	C239.5,231.7,247.4,235.3,256.8,235.6L256.8,235.6z"/>
<path class="st0" d="M314.6,93.5c0.1-0.1,0.1-0.5,0.4-0.7c10.9-10.4,23.2-18.7,38-22.6c6.1-1.6,12.4-1.9,18.6-0.7
	c13.9,2.7,22.4,11.7,27.1,24.6c3.4,9.3,4.1,18.9,3.4,28.7c-0.9,13.4-3.9,26.2-9.3,38.5c-0.4,0.8-0.8,1.7-1.2,2.5
	c-0.1,0.2-0.4,0.2-0.6,0.4c-4.6-7.4-9.2-14.8-13.8-22.3c1-4,2.2-8.2,3.1-12.5c1.5-7.3,1.9-14.7,0.5-22c-0.6-3.2-1.8-6.5-3.2-9.4
	c-2.4-4.8-6.5-7.3-12-7.6c-4-0.2-7.8,0.5-11.5,2c-6,2.4-11.1,6.1-16,10.1c-0.8,0.7-1.6,1.3-2.3,1.9
	C328.5,100.8,321.5,97.2,314.6,93.5L314.6,93.5z"/>
<path class="st0" d="M122.3,164.8c-3.6-7.1-5.9-13.8-7.7-20.8c-2.9-11.2-4.3-22.5-3.3-34c0.6-7.3,2.2-14.4,5.5-21
	c7.3-14,18.8-20.8,34.6-20.1c6.7,0.3,13,2.1,19,4.8c9.9,4.4,18.7,10.6,26.6,17.9c0.4,0.4,0.8,0.8,1.2,1.2c0.1,0.2,0.2,0.4,0.4,0.7
	c-6.9,3.6-13.8,7.1-21,10.8c-0.5-0.4-1.3-1-2.1-1.7c-6.3-5.2-12.8-9.9-21-11.7c-2.3-0.5-4.8-0.7-7.2-0.6c-5.2,0.2-8.9,2.8-11.5,7.2
	c-2.6,4.4-3.6,9.2-3.9,14.2c-0.5,9.5,0.7,18.7,3.7,27.7c0.6,1.9,0.4,3.1-0.7,4.8c-3.6,5.5-7,11.1-10.5,16.7
	C123.8,162.1,123.2,163.1,122.3,164.8L122.3,164.8z"/>
<path class="st0" d="M113.3,348.7c3.4,7,6.4,13.4,9.7,19.6c4.4,8.2,10.1,15.5,16.6,22.1c2.3,2.4,4,5,5,8.2c1.6,4.8,3.2,9.6,4.9,14.6
	c-0.7,0.3-1.2,0.6-1.7,0.7c-13.7,1.3-27-0.2-39.6-6.1c-8.2-3.9-15.1-9.4-19.6-17.5c-4.1-7.4-5.2-15.2-2.5-23.4
	c3.3-9.8,10.4-15.2,20.3-17.3C108.7,349.1,111.2,349,113.3,348.7z"/>
<path class="st0" d="M410.7,246.7c1,1.1,2,2.1,3,3.2c7.7,9.1,14.5,18.9,20.1,29.4c4.5,8.4,8,17.2,8.8,26.8c0.2,2.8,0.1,5.8-0.6,8.6
	c-1.9,7.6-8.3,12.2-16.8,12.5c-6.4,0.3-12.3-1.4-18.6-3.8c4.1-25.3,5.4-50.8,3.4-76.3C410.2,247,410.4,246.8,410.7,246.7
	L410.7,246.7z"/>
</svg>
