<?xml version="1.0" encoding="UTF-8"?>
<svg id="Layer_1" data-name="Layer 1" xmlns="http://www.w3.org/2000/svg" viewBox="0 0 1011 176.64">
  <defs>
    <style>
      .cls-1 {
        letter-spacing: -.06em;
      }

      .cls-2 {
        stroke-width: 0px;
      }

      .cls-2, .cls-3 {
        fill: #e42027;
      }

      .cls-3 {
        font-family: Ansage-Bold, Ansage;
        font-size: 160px;
        font-weight: 700;
      }

      .cls-4 {
        letter-spacing: 0em;
      }

      .cls-5 {
        letter-spacing: 0em;
      }
    </style>
  </defs>
  <text class="cls-3" transform="translate(136.94 136) scale(1.04 1)"><tspan class="cls-1" x="0" y="0">P</tspan><tspan class="cls-5" x="99.04" y="0">ARA</tspan><tspan class="cls-4" x="440.64" y="0">L</tspan><tspan x="529.76" y="0">LAX</tspan></text>
  <path class="cls-2" d="M108.71,129.41H20.86c-1.82,0-3.29,1.48-3.29,3.29s1.48,3.29,3.29,3.29h87.84c1.82,0,3.29-1.48,3.29-3.29s-1.48-3.29-3.29-3.29h0ZM117.49,24H12.08c-6.67,0-12.07,5.41-12.08,12.08v70.27c0,6.67,5.41,12.07,12.08,12.08h105.41c6.67,0,12.07-5.41,12.08-12.08V36.08c0-6.67-5.41-12.07-12.08-12.08h0ZM122.98,106.35c0,3.03-2.46,5.49-5.49,5.49H12.08c-3.03,0-5.49-2.46-5.49-5.49V36.08c0-3.03,2.46-5.49,5.49-5.49h105.41c3.03,0,5.49,2.46,5.49,5.49h0v70.27Z"/>
</svg>